<?xml version="1.0" encoding="UTF-8"?>
<svg xmlns="http://www.w3.org/2000/svg" xmlns:xlink="http://www.w3.org/1999/xlink" width="43px"
  height="60px" viewBox="0 0 43 60" version="1.1">
  <g id="surface1">
    <path
      style=" stroke:none;fill-rule:nonzero;fill:rgb(89.411765%,30.196078%,14.901961%);fill-opacity:1;"
      d="M 42.925781 11.761719 L 39.019531 55.035156 L 21.472656 59.847656 L 3.972656 55.042969 L 0.0742188 11.761719 Z M 42.925781 11.761719 " />
    <path
      style=" stroke:none;fill-rule:nonzero;fill:rgb(94.509804%,39.607843%,16.078431%);fill-opacity:1;"
      d="M 21.5 56.167969 L 35.679688 52.277344 L 39.015625 15.300781 L 21.5 15.300781 Z M 21.5 56.167969 " />
    <path
      style=" stroke:none;fill-rule:nonzero;fill:rgb(92.156863%,92.156863%,92.156863%);fill-opacity:1;"
      d="M 13.910156 25.917969 L 21.5 25.917969 L 21.5 20.609375 L 8.046875 20.609375 L 8.175781 22.03125 L 9.496094 36.660156 L 21.5 36.660156 L 21.5 31.351562 L 14.402344 31.351562 Z M 13.910156 25.917969 " />
    <path
      style=" stroke:none;fill-rule:nonzero;fill:rgb(92.156863%,92.156863%,92.156863%);fill-opacity:1;"
      d="M 15.121094 39.3125 L 9.734375 39.3125 L 10.488281 47.648438 L 21.476562 50.667969 L 21.5 50.660156 L 21.5 45.136719 L 21.476562 45.144531 L 15.503906 43.546875 Z M 15.121094 39.3125 " />
    <path style=" stroke:none;fill-rule:nonzero;fill:rgb(0%,0%,0%);fill-opacity:1;"
      d="M 4.0625 0 L 6.789062 0 L 6.789062 2.664062 L 9.28125 2.664062 L 9.28125 0 L 12.007812 0 L 12.007812 8.070312 L 9.28125 8.070312 L 9.28125 5.367188 L 6.789062 5.367188 L 6.789062 8.070312 L 4.0625 8.070312 Z M 4.0625 0 " />
    <path style=" stroke:none;fill-rule:nonzero;fill:rgb(0%,0%,0%);fill-opacity:1;"
      d="M 15.59375 2.675781 L 13.191406 2.675781 L 13.191406 0 L 20.71875 0 L 20.71875 2.675781 L 18.320312 2.675781 L 18.320312 8.070312 L 15.59375 8.070312 Z M 15.59375 2.675781 " />
    <path style=" stroke:none;fill-rule:nonzero;fill:rgb(0%,0%,0%);fill-opacity:1;"
      d="M 21.914062 0 L 24.757812 0 L 26.507812 2.835938 L 28.253906 0 L 31.097656 0 L 31.097656 8.070312 L 28.382812 8.070312 L 28.382812 4.070312 L 26.507812 6.941406 L 26.460938 6.941406 L 24.582031 4.070312 L 24.582031 8.070312 L 21.914062 8.070312 Z M 21.914062 0 " />
    <path style=" stroke:none;fill-rule:nonzero;fill:rgb(0%,0%,0%);fill-opacity:1;"
      d="M 32.453125 0 L 35.179688 0 L 35.179688 5.402344 L 39.015625 5.402344 L 39.015625 8.070312 L 32.453125 8.070312 Z M 32.453125 0 " />
    <path style=" stroke:none;fill-rule:nonzero;fill:rgb(100%,100%,100%);fill-opacity:1;"
      d="M 21.480469 36.660156 L 28.085938 36.660156 L 27.464844 43.542969 L 21.480469 45.140625 L 21.480469 50.664062 L 32.480469 47.648438 L 32.558594 46.753906 L 33.820312 32.777344 L 33.949219 31.351562 L 21.480469 31.351562 Z M 21.480469 36.660156 " />
    <path style=" stroke:none;fill-rule:nonzero;fill:rgb(100%,100%,100%);fill-opacity:1;"
      d="M 21.480469 25.902344 L 21.480469 25.917969 L 34.4375 25.917969 L 34.546875 24.722656 L 34.792969 22.03125 L 34.917969 20.609375 L 21.480469 20.609375 Z M 21.480469 25.902344 " />
  </g>
</svg>