<?xml version="1.0" encoding="UTF-8"?>
<svg xmlns="http://www.w3.org/2000/svg" xmlns:xlink="http://www.w3.org/1999/xlink" width="60px"
  height="60px" viewBox="0 0 60 60" version="1.1">
  <g id="surface1">
    <path style=" stroke:none;fill-rule:nonzero;fill:rgb(100%,87.45098%,0%);fill-opacity:1;"
      d="M 3.75 3.75 L 3.75 56.25 L 56.25 56.25 L 56.25 3.75 Z M 31.875 44.53125 C 31.875 49.640625 28.855469 52.132812 24.484375 52.132812 C 20.539062 52.132812 18.25 50.089844 17.085938 47.621094 L 21.101562 45.191406 C 21.878906 46.566406 22.464844 47.726562 24.15625 47.726562 C 25.5625 47.726562 26.71875 47.09375 26.71875 44.628906 L 26.71875 28.125 L 31.875 28.125 Z M 43.515625 52.015625 C 38.9375 52.015625 35.976562 49.949219 34.53125 47.09375 L 38.554688 44.765625 C 39.609375 46.492188 40.984375 47.644531 43.417969 47.644531 C 45.460938 47.644531 46.648438 46.738281 46.648438 45.328125 C 46.648438 43.636719 45.425781 43.039062 43.171875 42.046875 L 41.9375 41.519531 C 38.378906 40.003906 36.015625 38.101562 36.015625 34.082031 C 36.015625 30.382812 38.835938 27.679688 43.242188 27.679688 C 46.378906 27.679688 48.632812 28.65625 50.253906 31.511719 L 46.40625 33.984375 C 45.558594 32.46875 44.648438 31.875 43.234375 31.875 C 41.789062 31.875 40.875 32.792969 40.875 33.984375 C 40.875 35.464844 41.789062 36.0625 43.90625 36.980469 L 45.136719 37.507812 C 49.332031 39.304688 51.691406 41.140625 51.691406 45.261719 C 51.695312 49.703125 48.203125 52.015625 43.515625 52.015625 Z M 43.515625 52.015625 " />
  </g>
</svg>