<?xml version="1.0" encoding="UTF-8"?>
<svg xmlns="http://www.w3.org/2000/svg" xmlns:xlink="http://www.w3.org/1999/xlink" width="60px"
  height="60px" viewBox="0 0 60 60" version="1.1">
  <defs>
    <filter id="alpha" filterUnits="objectBoundingBox" x="0%" y="0%" width="100%" height="100%">
      <feColorMatrix type="matrix" in="SourceGraphic"
        values="0 0 0 0 1 0 0 0 0 1 0 0 0 0 1 0 0 0 1 0" />
    </filter>
    <mask id="mask0">
      <g filter="url(#alpha)">
        <rect x="0" y="0" width="60" height="60"
          style="fill:rgb(0%,0%,0%);fill-opacity:0.501961;stroke:none;" />
      </g>
    </mask>
    <clipPath id="clip1">
      <rect x="0" y="0" width="60" height="60" />
    </clipPath>
    <g id="surface5" clip-path="url(#clip1)">
      <path style=" stroke:none;fill-rule:nonzero;fill:rgb(100%,100%,100%);fill-opacity:1;"
        d="M 39.75 0 L 39.75 13.6875 C 39.75 15.28125 40.929688 19.125 46.285156 19.125 L 60 19.125 Z M 39.75 0 " />
    </g>
  </defs>
  <g id="surface1">
    <path
      style=" stroke:none;fill-rule:nonzero;fill:rgb(54.901961%,9.411765%,10.196078%);fill-opacity:1;"
      d="M 5.464844 0 C 2.464844 0 0 2.15625 0 4.78125 L 0 55.21875 C 0 57.84375 2.464844 60 5.464844 60 L 54.535156 60 C 57.535156 60 60 57.84375 60 55.21875 L 60 19.03125 L 39.75 0 Z M 5.464844 0 " />
    <path
      style=" stroke:none;fill-rule:nonzero;fill:rgb(41.960784%,5.098039%,7.058824%);fill-opacity:1;"
      d="M 60 19.125 L 60 20.0625 L 46.285156 20.0625 C 46.285156 20.0625 39.535156 18.84375 39.75 13.78125 C 39.75 13.78125 39.964844 19.125 46.179688 19.125 Z M 60 19.125 " />
    <use xlink:href="#surface5" mask="url(#mask0)" />
    <path style=" stroke:none;fill-rule:nonzero;fill:rgb(100%,100%,100%);fill-opacity:1;"
      d="M 15.964844 45.9375 L 12.429688 45.9375 L 12.429688 49.78125 C 12.429688 50.15625 12.105469 50.4375 11.570312 50.4375 C 11.144531 50.4375 10.820312 50.15625 10.820312 49.78125 L 10.820312 40.21875 C 10.820312 39.65625 11.355469 39.1875 12 39.1875 L 15.964844 39.1875 C 18.535156 39.1875 20.035156 40.78125 20.035156 42.5625 C 20.035156 44.4375 18.535156 45.9375 15.964844 45.9375 Z M 15.855469 40.40625 L 12.429688 40.40625 L 12.429688 44.71875 L 15.855469 44.71875 C 17.355469 44.71875 18.429688 43.875 18.429688 42.5625 C 18.429688 41.25 17.355469 40.40625 15.855469 40.40625 Z M 27 50.4375 L 23.785156 50.4375 C 23.144531 50.4375 22.605469 49.96875 22.605469 49.40625 L 22.605469 40.21875 C 22.605469 39.65625 23.144531 39.1875 23.785156 39.1875 L 27 39.1875 C 30.964844 39.1875 33.644531 41.625 33.644531 44.8125 C 33.644531 48 31.070312 50.4375 27 50.4375 Z M 27 40.40625 L 24.214844 40.40625 L 24.214844 49.125 L 27 49.125 C 30.105469 49.125 31.929688 47.15625 31.929688 44.71875 C 32.035156 42.375 30.214844 40.40625 27 40.40625 Z M 44.464844 40.40625 L 38.25 40.40625 L 38.25 44.0625 L 44.355469 44.0625 C 44.785156 44.0625 45 44.34375 45 44.71875 C 45 45.09375 44.679688 45.28125 44.355469 45.28125 L 38.25 45.28125 L 38.25 49.78125 C 38.25 50.15625 37.929688 50.4375 37.394531 50.4375 C 36.964844 50.4375 36.644531 50.15625 36.644531 49.78125 L 36.644531 40.21875 C 36.644531 39.65625 37.179688 39.1875 37.820312 39.1875 L 44.464844 39.1875 C 44.894531 39.1875 45.105469 39.46875 45.105469 39.84375 C 45.214844 40.125 44.894531 40.40625 44.464844 40.40625 Z M 44.464844 40.40625 " />
  </g>
</svg>