<?xml version="1.0" encoding="UTF-8"?>
<svg xmlns="http://www.w3.org/2000/svg" xmlns:xlink="http://www.w3.org/1999/xlink" width="60px"
  height="60px" viewBox="0 0 60 60" version="1.1">
  <g id="surface1">
    <path
      style=" stroke:none;fill-rule:evenodd;fill:rgb(70.196078%,89.803922%,98.823529%);fill-opacity:1;"
      d="M 13.324219 7.5 L 38.179688 7.5 L 38.179688 15.375 C 38.179688 16.347656 38.976562 17.144531 39.949219 17.144531 L 47.8125 17.144531 L 47.8125 41.015625 C 47.8125 41.660156 47.285156 42.1875 46.640625 42.1875 L 13.324219 42.1875 C 12.679688 42.1875 12.152344 41.660156 12.152344 41.015625 L 12.152344 8.671875 C 12.152344 8.027344 12.679688 7.5 13.324219 7.5 Z M 13.324219 7.5 " />
    <path
      style=" stroke:none;fill-rule:evenodd;fill:rgb(50.588235%,83.137255%,98.039216%);fill-opacity:1;"
      d="M 38.179688 7.5 L 47.8125 17.144531 L 39.902344 17.144531 C 38.953125 17.144531 38.179688 16.367188 38.179688 15.421875 Z M 38.179688 7.5 " />
    <path
      style=" stroke:none;fill-rule:nonzero;fill:rgb(1.176471%,60.784314%,89.803922%);fill-opacity:1;"
      d="M 19.6875 22.128906 L 41.25 22.128906 L 41.25 24.003906 L 19.6875 24.003906 Z M 19.6875 22.128906 " />
    <path
      style=" stroke:none;fill-rule:nonzero;fill:rgb(1.176471%,60.784314%,89.803922%);fill-opacity:1;"
      d="M 19.6875 28.691406 L 41.25 28.691406 L 41.25 30.566406 L 19.6875 30.566406 Z M 19.6875 28.691406 " />
    <path
      style=" stroke:none;fill-rule:evenodd;fill:rgb(1.176471%,60.784314%,89.803922%);fill-opacity:1;"
      d="M 9.882812 35.6875 L 50.117188 35.6875 C 50.769531 35.6875 51.367188 35.960938 51.800781 36.394531 C 52.230469 36.828125 52.5 37.429688 52.5 38.082031 L 52.5 49.636719 C 52.5 50.292969 52.230469 50.890625 51.800781 51.324219 C 51.367188 51.761719 50.769531 52.03125 50.117188 52.03125 L 9.882812 52.03125 C 9.230469 52.03125 8.632812 51.761719 8.199219 51.324219 C 7.769531 50.890625 7.5 50.292969 7.5 49.636719 L 7.5 38.082031 C 7.5 37.429688 7.769531 36.828125 8.199219 36.394531 C 8.632812 35.960938 9.230469 35.6875 9.882812 35.6875 Z M 9.882812 35.6875 " />
    <path style=" stroke:none;fill-rule:nonzero;fill:rgb(100%,100%,100%);fill-opacity:1;"
      d="M 15.503906 45.6875 L 17.566406 45.484375 C 17.6875 46.179688 17.9375 46.6875 18.320312 47.011719 C 18.699219 47.335938 19.210938 47.496094 19.855469 47.496094 C 20.535156 47.496094 21.050781 47.355469 21.394531 47.0625 C 21.742188 46.773438 21.914062 46.4375 21.914062 46.050781 C 21.914062 45.804688 21.839844 45.59375 21.695312 45.421875 C 21.550781 45.246094 21.296875 45.09375 20.933594 44.964844 C 20.6875 44.878906 20.121094 44.726562 19.238281 44.507812 C 18.101562 44.226562 17.308594 43.878906 16.851562 43.46875 C 16.207031 42.894531 15.882812 42.191406 15.882812 41.359375 C 15.882812 40.824219 16.035156 40.328125 16.339844 39.859375 C 16.640625 39.398438 17.078125 39.042969 17.648438 38.800781 C 18.21875 38.558594 18.902344 38.433594 19.710938 38.433594 C 21.027344 38.433594 22.015625 38.722656 22.683594 39.300781 C 23.347656 39.878906 23.695312 40.648438 23.730469 41.613281 L 21.613281 41.703125 C 21.523438 41.164062 21.328125 40.777344 21.03125 40.542969 C 20.734375 40.304688 20.285156 40.1875 19.691406 40.1875 C 19.074219 40.1875 18.589844 40.3125 18.246094 40.566406 C 18.019531 40.726562 17.90625 40.945312 17.90625 41.214844 C 17.90625 41.464844 18.011719 41.675781 18.222656 41.851562 C 18.488281 42.078125 19.136719 42.3125 20.167969 42.554688 C 21.199219 42.796875 21.960938 43.050781 22.453125 43.308594 C 22.945312 43.570312 23.332031 43.921875 23.613281 44.375 C 23.890625 44.828125 24.03125 45.382812 24.03125 46.046875 C 24.03125 46.644531 23.863281 47.210938 23.53125 47.730469 C 23.195312 48.257812 22.722656 48.648438 22.113281 48.902344 C 21.503906 49.15625 20.742188 49.285156 19.832031 49.285156 C 18.503906 49.285156 17.488281 48.980469 16.777344 48.367188 C 16.066406 47.753906 15.640625 46.859375 15.503906 45.6875 Z M 28.488281 49.097656 L 24.738281 38.613281 L 27.035156 38.613281 L 29.6875 46.375 L 32.257812 38.613281 L 34.503906 38.613281 L 30.746094 49.097656 Z M 40.460938 45.246094 L 40.460938 43.476562 L 45.023438 43.476562 L 45.023438 47.652344 C 44.582031 48.082031 43.9375 48.460938 43.097656 48.789062 C 42.253906 49.113281 41.402344 49.277344 40.539062 49.277344 C 39.445312 49.277344 38.488281 49.046875 37.671875 48.589844 C 36.855469 48.128906 36.242188 47.472656 35.832031 46.613281 C 35.421875 45.757812 35.21875 44.828125 35.21875 43.820312 C 35.21875 42.730469 35.445312 41.757812 35.902344 40.910156 C 36.363281 40.0625 37.03125 39.410156 37.914062 38.957031 C 38.585938 38.609375 39.425781 38.433594 40.425781 38.433594 C 41.726562 38.433594 42.746094 38.707031 43.472656 39.253906 C 44.207031 39.800781 44.679688 40.554688 44.886719 41.519531 L 42.785156 41.910156 C 42.636719 41.398438 42.359375 40.988281 41.949219 40.691406 C 41.542969 40.394531 41.035156 40.246094 40.425781 40.246094 C 39.5 40.246094 38.765625 40.539062 38.21875 41.125 C 37.671875 41.710938 37.398438 42.582031 37.398438 43.734375 C 37.398438 44.976562 37.675781 45.914062 38.230469 46.535156 C 38.78125 47.160156 39.507812 47.46875 40.402344 47.46875 C 40.847656 47.46875 41.292969 47.378906 41.738281 47.207031 C 42.183594 47.035156 42.566406 46.820312 42.886719 46.574219 L 42.886719 45.246094 Z M 40.460938 45.246094 " />
  </g>
</svg>